<svg width="14" height="15" viewBox="0 0 14 15" fill="none" xmlns="http://www.w3.org/2000/svg">
<path d="M9.43618 3.90689L7.71747 0.915056C7.39835 0.35955 6.59787 0.356891 6.27507 0.910267L4.46145 4.01933C4.22123 4.43113 3.81616 4.72035 3.34868 4.81384L0.870578 5.30946C0.228759 5.43783 -0.0213314 6.22206 0.427684 6.69829L2.22004 8.59928C2.60331 9.00577 2.75741 9.57727 2.63046 10.1213L1.81918 13.5983C1.65241 14.313 2.42416 14.8787 3.05555 14.5045L6.15073 12.6703C6.67464 12.3599 7.32617 12.3599 7.85007 12.6703L10.9453 14.5045C11.5766 14.8787 12.3484 14.313 12.1816 13.5983L11.3632 10.0909C11.2402 9.56368 11.3809 9.00955 11.7406 8.60491L13.5352 6.58603C13.9628 6.105 13.7069 5.34146 13.0758 5.21524L10.5545 4.71098C10.0832 4.61673 9.67558 4.32362 9.43618 3.90689Z" fill="#EDD146"/>
</svg>
